<svg width="169" height="35" viewBox="0 0 169 35" fill="none" xmlns="http://www.w3.org/2000/svg">
<g clip-path="url(#clip0_2003_21)">
<mask id="mask0_2003_21" style="mask-type:luminance" maskUnits="userSpaceOnUse" x="0" y="0" width="169" height="35">
<path d="M169 0H0V35H169V0Z" fill="white"/>
</mask>
<g mask="url(#mask0_2003_21)">
<mask id="mask1_2003_21" style="mask-type:luminance" maskUnits="userSpaceOnUse" x="0" y="0" width="169" height="35">
<path d="M169 0H0V35H169V0Z" fill="white"/>
</mask>
<g mask="url(#mask1_2003_21)">
<path d="M159 0H10C4.47715 0 0 4.47715 0 10V25C0 30.5228 4.47715 35 10 35H159C164.523 35 169 30.5228 169 25V10C169 4.47715 164.523 0 159 0Z" fill="url(#paint0_linear_2003_21)"/>
<mask id="mask2_2003_21" style="mask-type:alpha" maskUnits="userSpaceOnUse" x="0" y="0" width="169" height="35">
<path d="M159 0H10C4.47715 0 0 4.47715 0 10V25C0 30.5228 4.47715 35 10 35H159C164.523 35 169 30.5228 169 25V10C169 4.47715 164.523 0 159 0Z" fill="#2A2A2A"/>
</mask>
<g mask="url(#mask2_2003_21)">
<path d="M105.975 -4.1086C107.321 -3.9908 108.477 -3.10065 108.934 -1.82875L112.978 9.42796C113.565 11.0635 113.119 12.8919 111.843 14.072L98.4239 26.4816C97.1184 27.6897 96.9397 29.6911 98.0109 31.1115L106.034 41.7492C106.932 42.9389 105.576 44.5125 104.267 43.8015L81.9807 31.6936C81.501 31.433 81.3409 30.8217 81.6311 30.3595C82.6279 28.7674 82.1744 26.6708 80.6088 25.6329L67.228 16.7622C67.1855 16.734 67.1504 16.7012 67.1223 16.6654C66.8432 16.3098 67.4625 16.0595 67.914 16.0839L90.8494 17.3219C91.4444 17.354 91.9883 17.6683 92.3133 18.1678C93.2164 19.5557 95.3452 19.1678 95.7009 17.5506L96.5879 13.5172C96.6552 13.2113 96.5523 12.8928 96.3188 12.6841L88.494 5.70483C88.407 5.62736 88.3047 5.56797 88.1942 5.53085L61.5523 -3.46092C61.4966 -3.47972 61.4362 -3.44984 61.4173 -3.39417C61.3979 -3.33672 61.3344 -3.3071 61.2779 -3.32906L55.2019 -5.68904C53.6351 -6.2984 54.1802 -8.63907 55.8548 -8.4935L105.975 -4.1086Z" fill="white" fill-opacity="0.2"/>
<path fill-rule="evenodd" clip-rule="evenodd" d="M87.0852 6.98441C87.3406 7.07059 87.5759 7.20749 87.777 7.38689L94.7416 13.5994C94.7693 13.6242 94.7815 13.6619 94.7735 13.6982C94.7566 13.7745 94.6642 13.8047 94.6055 13.7532L91.8281 11.3141C91.5017 11.0276 90.9882 11.2336 90.9503 11.6662C90.9277 11.925 90.7208 12.1292 90.4618 12.1486L90.1677 12.1705C89.115 12.2491 89.0727 13.7781 90.1194 13.9147L92.6207 14.2411C93.0267 14.2941 93.3727 14.5616 93.5263 14.9411L94.1138 16.3925C94.1422 16.4628 94.1488 16.54 94.1325 16.614C94.061 16.9397 93.6323 17.0179 93.4505 16.7383L93.0089 16.0594C92.8579 15.8279 92.6055 15.6823 92.3294 15.6674L74.9783 14.7307L63.7849 13.7514C62.1664 13.6101 61.4377 15.7298 62.8008 16.6135L79.0775 27.1581C79.9763 27.7407 80.1365 28.9914 79.4135 29.7816L79.0972 30.1267L72.6319 35.4354C72.0618 35.9029 71.2529 35.2749 71.5648 34.6067L72.2114 33.2228C72.7993 31.9646 71.9573 30.5049 70.5737 30.3839L53.6655 28.9046C51.2135 28.6893 49.7612 26.0571 50.887 23.8681L59.3504 7.41692C60.2438 5.68024 62.1894 4.7562 64.1 5.16107L80.9675 8.73925L66.9246 3.75832C65.2186 3.15272 64.0682 1.54953 64.0419 -0.26066C64.0378 -0.521522 64.2931 -0.707883 64.5403 -0.624452L87.0852 6.98441ZM86.2229 10.4495C86.3519 10.622 86.5483 10.7313 86.7628 10.7501C87.5264 10.8169 87.8936 9.83638 87.2741 9.38511C86.5726 8.87408 85.7032 9.7544 86.2229 10.4495Z" fill="white" fill-opacity="0.2"/>
<path style="mix-blend-mode:overlay" d="M-23.4211 -77.6775C80.4929 -158.518 99.8185 -279.576 96.4919 -330C48.4798 -180.255 -86.9996 -103.77 -148.738 -84.2459C49.692 106.215 255.27 -10.7057 333.256 -92.9738C227.758 -104.311 143.954 -243.042 115.239 -310.991C121.754 -195.636 45.6125 -111.052 6.72754 -83.1796C74.3656 -92.7148 119.672 -141.149 133.87 -164.175C170.789 -111.737 221.531 -79.1352 242.286 -69.3891C130.82 -8.47408 18.7037 -49.5335 -23.4211 -77.6775Z" fill="url(#paint1_linear_2003_21)" fill-opacity="0.3"/>
</g>
<path d="M58.5 22C58.7652 22 59.0195 21.8946 59.2071 21.7071C59.3946 21.5196 59.5 21.2652 59.5 21V18C59.5 17.7348 59.3946 17.4804 59.2071 17.2929C59.0195 17.1054 58.7652 17 58.5 17V16.5C58.5 15.5717 58.8687 14.6815 59.5251 14.0251C60.1815 13.3687 61.0717 13 62 13C62.9282 13 63.8185 13.3687 64.4748 14.0251C65.1312 14.6815 65.5 15.5717 65.5 16.5V17C65.2348 17 64.9804 17.1054 64.7929 17.2929C64.6053 17.4804 64.5 17.7348 64.5 18V21H63C62.8674 21 62.7402 21.0527 62.6464 21.1464C62.5527 21.2402 62.5 21.3674 62.5 21.5C62.5 21.6326 62.5527 21.7598 62.6464 21.8536C62.7402 21.9473 62.8674 22 63 22H65.5C66.073 21.9983 66.628 21.7998 67.0721 21.4377C67.5163 21.0757 67.8225 20.572 67.9397 20.0111C68.0568 19.4502 67.9778 18.8661 67.7157 18.3565C67.4536 17.847 67.0244 17.4429 66.5 17.212V16.5C66.5 15.3065 66.0259 14.1619 65.182 13.318C64.338 12.4741 63.1934 12 62 12C60.8065 12 59.6619 12.4741 58.818 13.318C57.9741 14.1619 57.5 15.3065 57.5 16.5V17.212C56.9756 17.4429 56.5464 17.847 56.2843 18.3565C56.0222 18.8661 55.9431 19.4502 56.0603 20.0111C56.1774 20.572 56.4837 21.0757 56.9278 21.4377C57.3719 21.7998 57.927 21.9983 58.5 22Z" fill="white"/>
<path d="M76.98 18.12L75.61 20.5H74.06L76.25 16.97L74.19 13.61H75.75L76.98 15.82L78.21 13.61H79.75L77.71 16.97L79.89 20.5H78.34L76.98 18.12ZM81.0473 13.61H85.7973V14.84H82.4173V16.42H85.3073V17.65H82.4173V19.28H85.7973V20.5H81.0473V13.61ZM89.3587 14.84V16.67C89.3587 17.2433 89.3254 17.7633 89.2588 18.23C89.1921 18.6967 89.0721 19.1 88.8988 19.44C88.7254 19.78 88.4821 20.0533 88.1688 20.26C87.8621 20.4667 87.4654 20.6033 86.9788 20.67L86.6787 19.55C86.9654 19.4567 87.1954 19.3367 87.3688 19.19C87.5421 19.0433 87.6754 18.8567 87.7688 18.63C87.8688 18.4033 87.9321 18.1333 87.9588 17.82C87.9921 17.5067 88.0088 17.1367 88.0088 16.71V13.61H92.5488V20.5H91.1588V14.84H89.3587ZM98.1834 20.5V14.84H95.6434V20.5H94.2734V13.61H99.5734V20.5H98.1834ZM101.258 13.61H106.008V14.84H102.628V16.42H105.518V17.65H102.628V19.28H106.008V20.5H101.258V13.61ZM108.88 16.67H110.28C110.593 16.67 110.83 16.5833 110.99 16.41C111.15 16.2367 111.23 16.02 111.23 15.76C111.23 15.4933 111.146 15.2733 110.98 15.1C110.82 14.9267 110.586 14.84 110.28 14.84H108.88V16.67ZM110.59 13.61C110.93 13.61 111.223 13.6767 111.47 13.81C111.716 13.9367 111.92 14.1033 112.08 14.31C112.246 14.5167 112.366 14.75 112.44 15.01C112.52 15.2633 112.56 15.5133 112.56 15.76C112.56 16.0133 112.513 16.2667 112.42 16.52C112.333 16.7733 112.203 17.0033 112.03 17.21C111.863 17.4167 111.653 17.5867 111.4 17.72C111.153 17.8467 110.87 17.91 110.55 17.91H108.88V20.5H107.51V13.61H110.59Z" fill="white"/>
<path d="M159 1H10C5.02944 1 1 5.02944 1 10V25C1 29.9706 5.02944 34 10 34H159C163.971 34 168 29.9706 168 25V10C168 5.02944 163.971 1 159 1Z" stroke="url(#paint2_linear_2003_21)" stroke-width="2"/>
</g>
</g>
</g>
<defs>
<linearGradient id="paint0_linear_2003_21" x1="169" y1="35" x2="1.12391e-06" y2="-5.4269e-06" gradientUnits="userSpaceOnUse">
<stop stop-color="#323D45"/>
<stop offset="0.501962" stop-color="#1FCEFF"/>
<stop offset="1" stop-color="#323D45"/>
</linearGradient>
<linearGradient id="paint1_linear_2003_21" x1="94.2335" y1="19.0034" x2="93.5358" y2="-9.08058" gradientUnits="userSpaceOnUse">
<stop stop-color="white"/>
<stop offset="1" stop-color="#999999" stop-opacity="0"/>
</linearGradient>
<linearGradient id="paint2_linear_2003_21" x1="84" y1="35" x2="84" y2="-4.23554e-06" gradientUnits="userSpaceOnUse">
<stop stop-color="#A8ECFF"/>
<stop offset="1" stop-color="#A8ECFF" stop-opacity="0"/>
</linearGradient>
<clipPath id="clip0_2003_21">
<rect width="169" height="35" fill="white"/>
</clipPath>
</defs>
</svg>
